# xmcd CD database file
#
# Track frame offsets:
#	150
#	30916
#	58171
#	82579
#	112632
#	140042
#	162806
#	196395
#	223989
#	239655
#	265049
#	286066
#	303885
#	323291
#	347574
#
# Disc length: 4879 seconds
#
# Revision: 0
# Processed by: cddbd v1.5.2PL0 Copyright (c) Steve Scherf et al.
# Submitted via: CDex 1.51
#
DISCID=c3130d0f
DTITLE=Willie Colon - The best
DYEAR=1900
DGENRE=Salsa
TTITLE0=Gitana
TTITLE1=Yo soy la muerte
TTITLE2=Sin poder hablar
TTITLE3=Mi sueño
TTITLE4=Oh que será
TTITLE5=Tiempo pa´matar
TTITLE6=Amor verdadero
TTITLE7=El gran varon
TTITLE8=Casanova
TTITLE9=La murga
TTITLE10=Talento TV
TTITLE11=Primera noche de amor
TTITLE12=Usted Abuso
TTITLE13=Y yo sin poder hablar
TTITLE14=Celos
EXTD=
EXTT0=
EXTT1=
EXTT2=
EXTT3=
EXTT4=
EXTT5=
EXTT6=
EXTT7=
EXTT8=
EXTT9=
EXTT10=
EXTT11=
EXTT12=
EXTT13=
EXTT14=
PLAYORDER=
